<?xml version="1.0" standalone="no"?>
<!DOCTYPE svg PUBLIC "-//W3C//DTD SVG 20010904//EN"
 "http://www.w3.org/TR/2001/REC-SVG-20010904/DTD/svg10.dtd">
<svg version="1.0" xmlns="http://www.w3.org/2000/svg"
 width="228.000000pt" height="140.000000pt" viewBox="0 0 228.000000 140.000000"
 preserveAspectRatio="xMidYMid meet">

<g transform="translate(0.000000,140.000000) scale(0.100000,-0.100000)"
fill="#000000" stroke="none">
<path d="M1680 1370 c-8 -5 -10 -10 -5 -10 6 0 17 5 25 10 8 5 11 10 5 10 -5
0 -17 -5 -25 -10z"/>
<path d="M1894 1338 l-19 -23 23 19 c21 18 27 26 19 26 -2 0 -12 -10 -23 -22z"/>
<path d="M1430 1316 c0 -2 8 -10 18 -17 15 -13 16 -12 3 4 -13 16 -21 21 -21
13z"/>
<path d="M1495 1240 c21 -22 43 -40 47 -40 5 0 -7 14 -27 31 -19 17 -32 35
-29 40 3 5 -3 9 -12 9 -14 0 -8 -10 21 -40z"/>
<path d="M1759 1243 l-24 -28 28 24 c25 23 32 31 24 31 -2 0 -14 -12 -28 -27z"/>
<path d="M1284 1223 c11 -13 14 -23 8 -23 -7 0 -12 -3 -12 -7 0 -5 23 -8 51
-8 47 0 49 1 23 11 l-28 11 30 16 c16 9 25 16 21 17 -5 0 -22 -8 -38 -17 -27
-16 -29 -16 -51 3 l-23 19 19 -22z"/>
<path d="M25 1200 c10 -11 20 -20 23 -20 3 0 -3 9 -13 20 -10 11 -20 20 -23
20 -3 0 3 -9 13 -20z"/>
<path d="M1190 1216 c0 -2 17 -12 38 -22 20 -9 31 -19 25 -21 -23 -8 -13 -20
12 -15 14 2 36 -3 50 -12 14 -9 25 -14 25 -11 0 7 -79 57 -114 72 -30 14 -36
15 -36 9z"/>
<path d="M1841 1204 c0 -11 3 -14 6 -6 3 7 2 16 -1 19 -3 4 -6 -2 -5 -13z"/>
<path d="M1142 1179 c2 -7 20 -15 38 -16 18 -2 36 -5 38 -8 3 -3 -11 -21 -32
-40 -30 -28 -42 -33 -56 -25 -10 6 -25 10 -32 10 -7 -1 0 -8 16 -17 l30 -16
-30 -13 -29 -14 33 6 c19 3 39 1 47 -6 9 -7 15 -8 15 -2 0 5 -8 13 -17 16 -14
6 -10 14 26 47 l42 40 35 -20 c39 -23 54 -26 54 -10 0 5 -4 8 -9 4 -11 -6 -81
33 -81 45 0 4 -10 10 -22 13 -13 3 -34 9 -47 13 -18 5 -23 4 -19 -7z"/>
<path d="M75 1160 c10 -11 20 -20 23 -20 3 0 -3 9 -13 20 -10 11 -20 20 -23
20 -3 0 3 -9 13 -20z"/>
<path d="M1831 1154 c0 -11 3 -14 6 -6 3 7 2 16 -1 19 -3 4 -6 -2 -5 -13z"/>
<path d="M1356 1133 c-6 -14 -5 -15 5 -6 7 7 10 15 7 18 -3 3 -9 -2 -12 -12z"/>
<path d="M110 1136 c0 -2 8 -10 18 -17 15 -13 16 -12 3 4 -13 16 -21 21 -21
13z"/>
<path d="M1113 1133 c9 -14 47 -24 47 -12 0 5 -4 9 -9 9 -5 0 -17 3 -27 7 -11
4 -15 3 -11 -4z"/>
<path d="M1055 1100 c-3 -6 1 -7 9 -4 18 7 21 14 7 14 -6 0 -13 -4 -16 -10z"/>
<path d="M1201 1087 c2 -1 13 -9 24 -17 19 -14 19 -14 6 3 -7 9 -18 17 -24 17
-6 0 -8 -1 -6 -3z"/>
<path d="M1020 1069 c0 -5 3 -8 8 -6 8 6 33 -19 26 -26 -3 -2 2 -7 11 -10 22
-9 18 9 -7 33 -24 22 -38 26 -38 9z"/>
<path d="M1253 1065 c0 -8 4 -12 9 -9 5 3 6 10 3 15 -9 13 -12 11 -12 -6z"/>
<path d="M1791 1039 c-13 -17 -43 -40 -67 -50 -24 -11 -46 -24 -50 -30 -3 -6
8 -4 24 5 17 9 36 16 42 16 11 0 56 47 73 76 15 25 1 15 -22 -17z"/>
<path d="M988 1043 c6 -2 18 -2 25 0 6 3 1 5 -13 5 -14 0 -19 -2 -12 -5z"/>
<path d="M1193 1035 c0 -8 4 -15 9 -15 4 0 8 4 8 9 0 6 -4 12 -8 15 -5 3 -9
-1 -9 -9z"/>
<path d="M1859 1033 c-13 -16 -12 -17 4 -4 16 13 21 21 13 21 -2 0 -10 -8 -17
-17z"/>
<path d="M919 1003 c-13 -16 -12 -17 4 -4 9 7 17 15 17 17 0 8 -8 3 -21 -13z"/>
<path d="M1094 1011 c7 -11 46 -35 46 -28 0 3 -12 12 -26 22 -15 9 -23 12 -20
6z"/>
<path d="M1384 1003 c1 -11 -11 -20 -33 -27 -29 -8 -36 -7 -49 10 -13 17 -14
17 -8 1 3 -10 6 -21 6 -23 0 -8 37 -4 69 7 30 11 41 32 22 43 -5 3 -8 -2 -7
-11z"/>
<path d="M310 1006 c0 -3 9 -10 20 -16 11 -6 20 -8 20 -6 0 3 -9 10 -20 16
-11 6 -20 8 -20 6z"/>
<path d="M1483 1003 c9 -2 23 -2 30 0 6 3 -1 5 -18 5 -16 0 -22 -2 -12 -5z"/>
<path d="M1418 993 c7 -3 16 -2 19 1 4 3 -2 6 -13 5 -11 0 -14 -3 -6 -6z"/>
<path d="M1198 963 c7 -3 16 -2 19 1 4 3 -2 6 -13 5 -11 0 -14 -3 -6 -6z"/>
<path d="M1886 943 c-6 -14 -5 -15 5 -6 7 7 10 15 7 18 -3 3 -9 -2 -12 -12z"/>
<path d="M538 913 c6 -2 18 -2 25 0 6 3 1 5 -13 5 -14 0 -19 -2 -12 -5z"/>
<path d="M718 913 c7 -3 16 -2 19 1 4 3 -2 6 -13 5 -11 0 -14 -3 -6 -6z"/>
<path d="M1530 890 c-8 -5 -10 -10 -5 -10 6 0 17 5 25 10 8 5 11 10 5 10 -5 0
-17 -5 -25 -10z"/>
<path d="M1780 880 c-8 -5 -10 -10 -5 -10 6 0 17 5 25 10 8 5 11 10 5 10 -5 0
-17 -5 -25 -10z"/>
<path d="M660 850 c-9 -16 -8 -18 5 -14 8 4 15 12 15 20 0 20 -7 17 -20 -6z"/>
<path d="M1258 803 c7 -3 16 -2 19 1 4 3 -2 6 -13 5 -11 0 -14 -3 -6 -6z"/>
<path d="M1589 789 l-24 -20 28 17 c15 9 27 18 27 20 0 8 -8 4 -31 -17z"/>
<path d="M868 783 c6 -2 18 -2 25 0 6 3 1 5 -13 5 -14 0 -19 -2 -12 -5z"/>
<path d="M1053 783 c9 -2 23 -2 30 0 6 3 -1 5 -18 5 -16 0 -22 -2 -12 -5z"/>
<path d="M665 702 c11 -13 29 -28 40 -34 21 -11 18 -8 -30 32 -29 24 -29 24
-10 2z"/>
<path d="M1220 695 c0 -8 4 -15 10 -15 5 0 7 7 4 15 -4 8 -8 15 -10 15 -2 0
-4 -7 -4 -15z"/>
<path d="M1357 675 c-4 -8 -2 -17 3 -20 6 -4 10 -4 10 -1 0 2 3 11 6 20 3 9 2
16 -4 16 -5 0 -12 -7 -15 -15z"/>
<path d="M818 633 c7 -3 16 -2 19 1 4 3 -2 6 -13 5 -11 0 -14 -3 -6 -6z"/>
<path d="M960 623 c19 -3 39 -10 43 -16 6 -8 7 -7 4 3 -2 10 -17 15 -43 16
-37 1 -38 1 -4 -3z"/>
<path d="M1116 603 c-6 -14 -5 -15 5 -6 7 7 10 15 7 18 -3 3 -9 -2 -12 -12z"/>
<path d="M1041 584 c0 -11 3 -14 6 -6 3 7 2 16 -1 19 -3 4 -6 -2 -5 -13z"/>
<path d="M992 560 c0 -14 2 -19 5 -12 2 6 2 18 0 25 -3 6 -5 1 -5 -13z"/>
<path d="M511 328 c-14 -38 -45 -228 -38 -235 13 -12 19 6 38 113 10 58 20
109 23 111 3 3 12 -21 21 -53 40 -148 49 -169 70 -169 21 0 27 16 70 169 9 32
18 56 21 54 2 -3 13 -53 24 -113 11 -60 22 -110 25 -113 15 -16 15 18 0 110
-22 124 -30 148 -49 148 -23 0 -28 -12 -76 -199 -6 -23 -13 -41 -16 -38 -3 2
-18 52 -34 110 -15 58 -31 111 -35 116 -11 19 -35 12 -44 -11z"/>
<path d="M904 340 c-41 -16 -64 -59 -64 -117 0 -79 34 -133 84 -133 26 0 18
15 -13 27 -54 20 -67 137 -20 184 12 12 33 19 58 19 55 0 81 -34 81 -107 0
-55 -13 -78 -66 -110 -18 -11 -17 -12 7 -12 33 -1 68 37 79 86 26 112 -53 201
-146 163z"/>
<path d="M1825 341 c-40 -17 -59 -50 -63 -110 -6 -82 28 -141 82 -141 26 0 18
15 -13 27 -53 19 -65 139 -20 184 30 30 92 25 118 -7 32 -40 29 -126 -4 -159
-13 -14 -29 -25 -35 -25 -5 0 -10 -4 -10 -10 0 -19 36 -10 58 13 61 64 47 193
-24 225 -29 14 -60 14 -89 3z"/>
<path d="M1120 215 c0 -77 4 -125 10 -125 6 0 10 23 10 50 l0 50 34 0 c30 0
40 -7 73 -50 21 -27 44 -49 51 -50 19 0 15 9 -23 56 -39 47 -41 54 -22 54 44
0 63 84 27 120 -16 16 -33 20 -90 20 l-70 0 0 -125z m144 83 c21 -30 20 -43
-6 -71 -20 -21 -29 -23 -68 -18 l-45 6 -3 53 -3 52 55 0 c45 0 58 -4 70 -22z"/>
<path d="M1370 215 c0 -77 4 -125 10 -125 6 0 10 48 10 125 0 77 -4 125 -10
125 -6 0 -10 -48 -10 -125z"/>
<path d="M1480 215 c0 -77 4 -125 10 -125 6 0 10 45 11 113 l0 112 22 -29 c48
-63 56 -71 63 -64 12 13 -64 118 -86 118 -19 0 -20 -7 -20 -125z"/>
<path d="M1668 228 l-3 -113 -28 48 c-16 26 -36 47 -44 47 -13 0 -13 -4 3 -27
9 -16 27 -43 38 -60 12 -18 29 -33 39 -33 15 0 17 13 17 125 0 158 -18 168
-22 13z"/>
</g>
</svg>
